<?xml version="1.0" encoding="UTF-8" standalone="no"?>
<!DOCTYPE svg PUBLIC "-//W3C//DTD SVG 1.1//EN"
 "http://www.w3.org/Graphics/SVG/1.1/DTD/svg11.dtd">
<!-- Generated by graphviz version 2.43.0 (0)
 -->
<!-- Title: workflow Pages: 1 -->
<svg width="1280pt" height="1399pt"
 viewBox="0.00 0.00 1280.32 1399.00" xmlns="http://www.w3.org/2000/svg" xmlns:xlink="http://www.w3.org/1999/xlink">
<g id="graph0" class="graph" transform="scale(1 1) rotate(0) translate(4 1395)">
<title>workflow</title>
<polygon fill="white" stroke="transparent" points="-4,4 -4,-1395 1276.32,-1395 1276.32,4 -4,4"/>
<text text-anchor="start" x="615.16" y="-8.8" font-family="Times,serif" font-weight="bold" font-size="14.00">asset</text>
<!-- place_new -->
<g id="node1" class="node">
<title>place_new</title>
<ellipse fill="lightgreen" stroke="lightBlue" cx="431" cy="-1355" rx="72" ry="36"/>
<text text-anchor="start" x="423" y="-1365.6" font-family="Arial" font-weight="bold" font-size="8.00">new</text>
<text text-anchor="start" x="399" y="-1357.6" font-family="Arial" font-style="italic" font-size="8.00">Registered/added</text>
<text text-anchor="start" x="399.5" y="-1341.6" font-family="Arial" font-size="8.00">Then: </text>
<text text-anchor="start" x="423.5" y="-1341.6" font-family="Arial" text-decoration="underline" font-size="8.00">iiif</text>
<text text-anchor="start" x="430.5" y="-1341.6" font-family="Arial" font-size="8.00"> </text>
<text text-anchor="start" x="433.5" y="-1341.6" font-family="Arial" text-decoration="underline" font-size="8.00">archive</text>
<text text-anchor="start" x="459.5" y="-1341.6" font-family="Arial" font-size="8.00"> </text>
</g>
<!-- transition_archive -->
<g id="node12" class="node">
<title>transition_archive</title>
<polygon fill="lightBlue" stroke="lightBlue" points="403,-1067 259,-1067 259,-995 403,-995 403,-1067"/>
<text text-anchor="start" x="316.5" y="-1037.6" font-family="Arial" font-weight="bold" font-size="8.00">archive</text>
<text text-anchor="start" x="317.5" y="-1029.6" font-family="Arial" font-style="italic" font-size="8.00">Archive</text>
<text text-anchor="start" x="318.5" y="-1021.6" font-family="Arial" font-size="8.00">async: </text>
</g>
<!-- place_new&#45;&gt;transition_archive -->
<!-- new -->
<g id="edge1" class="edge">
<title>place_new&#45;&gt;transition_archive</title>
<path fill="none" stroke="#333333" d="M436.32,-1318.95C442.29,-1268.34 447.06,-1173.17 412,-1103 405.97,-1090.93 396.91,-1080.03 387,-1070.59"/>
<polygon fill="#333333" stroke="#333333" points="388.17,-1069.29 383.31,-1067.18 385.79,-1071.86 388.17,-1069.29"/>
</g>
<!-- transition_iiif -->
<g id="node16" class="node">
<title>transition_iiif</title>
<polygon fill="lightBlue" stroke="lightBlue" points="403,-1283 259,-1283 259,-1211 403,-1211 403,-1283"/>
<text text-anchor="start" x="326" y="-1261.6" font-family="Arial" font-weight="bold" font-size="8.00">iiif</text>
<text text-anchor="start" x="297.5" y="-1253.6" font-family="Arial" font-style="italic" font-size="8.00">Fetch IIIF manifest</text>
<text text-anchor="start" x="318.5" y="-1245.6" font-family="Arial" font-size="8.00">async: </text>
<text text-anchor="start" x="304.5" y="-1229.6" font-family="Arial" font-size="8.00">Then: </text>
<text text-anchor="start" x="328.5" y="-1229.6" font-family="Arial" text-decoration="underline" font-size="8.00">archive</text>
<text text-anchor="start" x="354.5" y="-1229.6" font-family="Arial" font-size="8.00"> </text>
</g>
<!-- place_new&#45;&gt;transition_iiif -->
<!-- new -->
<g id="edge23" class="edge">
<title>place_new&#45;&gt;transition_iiif</title>
<path fill="none" stroke="#333333" d="M401,-1322.2C390.56,-1311.13 378.72,-1298.59 367.79,-1287"/>
<polygon fill="#333333" stroke="#333333" points="368.83,-1285.55 364.13,-1283.11 366.29,-1287.95 368.83,-1285.55"/>
</g>
<!-- transition_queue_ai -->
<g id="node22" class="node">
<title>transition_queue_ai</title>
<polygon fill="lightBlue" stroke="lightBlue" points="1191,-635 1047,-635 1047,-563 1191,-563 1191,-635"/>
<text text-anchor="start" x="1100.5" y="-601.6" font-family="Arial" font-weight="bold" font-size="8.00">queue_ai</text>
<text text-anchor="start" x="1091.5" y="-593.6" font-family="Arial" font-style="italic" font-size="8.00">Queue AI tasks</text>
</g>
<!-- place_new&#45;&gt;transition_queue_ai -->
<!-- new -->
<g id="edge45" class="edge">
<title>place_new&#45;&gt;transition_queue_ai</title>
<path fill="none" stroke="#333333" d="M500.9,-1346.36C670.5,-1325.89 1090,-1262.85 1090,-1140 1090,-1140 1090,-1140 1090,-814 1090,-752.93 1101.74,-682.94 1110.28,-640.11"/>
<polygon fill="#333333" stroke="#333333" points="1112.03,-640.27 1111.3,-635.02 1108.6,-639.58 1112.03,-640.27"/>
</g>
<!-- place_iiif -->
<g id="node2" class="node">
<title>place_iiif</title>
<ellipse fill="lightgreen" stroke="lightBlue" cx="331" cy="-1139" rx="72" ry="36"/>
<text text-anchor="start" x="326" y="-1149.6" font-family="Arial" font-weight="bold" font-size="8.00">iiif</text>
<text text-anchor="start" x="299" y="-1141.6" font-family="Arial" font-style="italic" font-size="8.00">Registered/added</text>
<text text-anchor="start" x="286" y="-1125.6" font-family="Arial" font-size="8.00">Then: </text>
<text text-anchor="start" x="310" y="-1125.6" font-family="Arial" text-decoration="underline" font-size="8.00">archive</text>
<text text-anchor="start" x="336" y="-1125.6" font-family="Arial" font-size="8.00"> </text>
<text text-anchor="start" x="339" y="-1125.6" font-family="Arial" text-decoration="underline" font-size="8.00">queue_ai</text>
<text text-anchor="start" x="373" y="-1125.6" font-family="Arial" font-size="8.00"> </text>
</g>
<!-- place_iiif&#45;&gt;transition_archive -->
<!-- iiif -->
<g id="edge3" class="edge">
<title>place_iiif&#45;&gt;transition_archive</title>
<path fill="none" stroke="#333333" d="M331,-1103C331,-1093.24 331,-1082.56 331,-1072.51"/>
<polygon fill="#333333" stroke="#333333" points="332.75,-1072.33 331,-1067.33 329.25,-1072.33 332.75,-1072.33"/>
</g>
<!-- place_iiif&#45;&gt;transition_iiif -->
<!-- iiif -->
<g id="edge25" class="edge">
<title>place_iiif&#45;&gt;transition_iiif</title>
<path fill="none" stroke="#333333" d="M337.39,-1174.97C337.8,-1184.82 337.86,-1195.62 337.57,-1205.76"/>
<polygon fill="#333333" stroke="#333333" points="335.82,-1205.94 337.39,-1211 339.31,-1206.06 335.82,-1205.94"/>
</g>
<!-- place_archived -->
<g id="node3" class="node">
<title>place_archived</title>
<ellipse fill="lightgreen" stroke="lightBlue" cx="331" cy="-923" rx="170.56" ry="36"/>
<text text-anchor="start" x="314" y="-933.6" font-family="Arial" font-weight="bold" font-size="8.00">archived</text>
<text text-anchor="start" x="197" y="-925.6" font-family="Arial" font-style="italic" font-size="8.00">Source master streamed into our S3 (museado). imgproxy reads it via s3://.</text>
<text text-anchor="start" x="311" y="-909.6" font-family="Arial" font-size="8.00">Then: </text>
<text text-anchor="start" x="335" y="-909.6" font-family="Arial" text-decoration="underline" font-size="8.00">info</text>
<text text-anchor="start" x="348" y="-909.6" font-family="Arial" font-size="8.00"> </text>
</g>
<!-- place_archived&#45;&gt;transition_archive -->
<!-- archived -->
<g id="edge5" class="edge">
<title>place_archived&#45;&gt;transition_archive</title>
<path fill="none" stroke="#333333" d="M337.4,-959.33C337.8,-969.1 337.86,-979.79 337.57,-989.82"/>
<polygon fill="#333333" stroke="#333333" points="335.82,-989.94 337.39,-995 339.31,-990.06 335.82,-989.94"/>
</g>
<!-- transition_info -->
<g id="node13" class="node">
<title>transition_info</title>
<polygon fill="lightBlue" stroke="lightBlue" points="534,-851 390,-851 390,-779 534,-779 534,-851"/>
<text text-anchor="start" x="454" y="-829.6" font-family="Arial" font-weight="bold" font-size="8.00">info</text>
<text text-anchor="start" x="455" y="-821.6" font-family="Arial" font-style="italic" font-size="8.00">Info</text>
<text text-anchor="start" x="449.5" y="-813.6" font-family="Arial" font-size="8.00">async: </text>
<text text-anchor="start" x="430" y="-797.6" font-family="Arial" font-size="8.00">Then: </text>
<text text-anchor="start" x="454" y="-797.6" font-family="Arial" text-decoration="underline" font-size="8.00">info_failed</text>
<text text-anchor="start" x="491" y="-797.6" font-family="Arial" font-size="8.00"> </text>
</g>
<!-- place_archived&#45;&gt;transition_info -->
<!-- archived -->
<g id="edge9" class="edge">
<title>place_archived&#45;&gt;transition_info</title>
<path fill="none" stroke="#333333" d="M373.17,-887.88C386.32,-877.24 400.91,-865.43 414.41,-854.51"/>
<polygon fill="#333333" stroke="#333333" points="415.77,-855.66 418.56,-851.15 413.57,-852.94 415.77,-855.66"/>
</g>
<!-- transition__delete -->
<g id="node14" class="node">
<title>transition__delete</title>
<polygon fill="lightBlue" stroke="lightBlue" points="534,-635 390,-635 390,-563 534,-563 534,-635"/>
<text text-anchor="start" x="447.5" y="-605.6" font-family="Arial" font-weight="bold" font-size="8.00">_delete</text>
<text text-anchor="start" x="450" y="-597.6" font-family="Arial" font-style="italic" font-size="8.00">Delete</text>
<text text-anchor="start" x="449.5" y="-589.6" font-family="Arial" font-size="8.00">async: </text>
</g>
<!-- place_archived&#45;&gt;transition__delete -->
<!-- archived -->
<g id="edge15" class="edge">
<title>place_archived&#45;&gt;transition__delete</title>
<path fill="none" stroke="#333333" d="M308.49,-886.93C278.32,-835.01 233.62,-736.78 280,-671 307.46,-632.05 336.66,-652.46 381,-635 382.25,-634.51 383.5,-634.01 384.77,-633.51"/>
<polygon fill="#333333" stroke="#333333" points="385.69,-635.02 389.67,-631.53 384.38,-631.77 385.69,-635.02"/>
</g>
<!-- place_informed -->
<g id="node4" class="node">
<title>place_informed</title>
<ellipse fill="lightgreen" stroke="lightBlue" cx="462" cy="-707" rx="173.37" ry="36"/>
<text text-anchor="start" x="444" y="-717.6" font-family="Arial" font-weight="bold" font-size="8.00">informed</text>
<text text-anchor="start" x="326" y="-709.6" font-family="Arial" font-style="italic" font-size="8.00">imgproxy /info fetched: dimensions, byte size, format, hash from s3:// source.</text>
<text text-anchor="start" x="431.5" y="-693.6" font-family="Arial" font-size="8.00">Then: </text>
<text text-anchor="start" x="455.5" y="-693.6" font-family="Arial" text-decoration="underline" font-size="8.00">queue_ai</text>
<text text-anchor="start" x="489.5" y="-693.6" font-family="Arial" font-size="8.00"> </text>
</g>
<!-- place_informed&#45;&gt;transition_info -->
<!-- informed -->
<g id="edge11" class="edge">
<title>place_informed&#45;&gt;transition_info</title>
<path fill="none" stroke="#333333" d="M468.4,-743.33C468.8,-753.1 468.86,-763.79 468.57,-773.82"/>
<polygon fill="#333333" stroke="#333333" points="466.82,-773.94 468.39,-779 470.31,-774.06 466.82,-773.94"/>
</g>
<!-- place_informed&#45;&gt;transition__delete -->
<!-- informed -->
<g id="edge17" class="edge">
<title>place_informed&#45;&gt;transition__delete</title>
<path fill="none" stroke="#333333" d="M462,-671C462,-661.24 462,-650.56 462,-640.51"/>
<polygon fill="#333333" stroke="#333333" points="463.75,-640.33 462,-635.33 460.25,-640.33 463.75,-640.33"/>
</g>
<!-- transition_local_ocr -->
<g id="node15" class="node">
<title>transition_local_ocr</title>
<polygon fill="lightBlue" stroke="lightBlue" points="1029,-635 885,-635 885,-563 1029,-563 1029,-635"/>
<text text-anchor="start" x="938.5" y="-613.6" font-family="Arial" font-weight="bold" font-size="8.00">local_ocr</text>
<text text-anchor="start" x="937" y="-605.6" font-family="Arial" font-style="italic" font-size="8.00">Local OCR</text>
<text text-anchor="start" x="944.5" y="-597.6" font-family="Arial" font-size="8.00">async: </text>
<text text-anchor="start" x="931" y="-581.6" font-family="Arial" font-size="8.00">Then: </text>
<text text-anchor="start" x="955" y="-581.6" font-family="Arial" text-decoration="underline" font-size="8.00">ai_task</text>
<text text-anchor="start" x="980" y="-581.6" font-family="Arial" font-size="8.00"> </text>
</g>
<!-- place_informed&#45;&gt;transition_local_ocr -->
<!-- informed -->
<g id="edge19" class="edge">
<title>place_informed&#45;&gt;transition_local_ocr</title>
<path fill="none" stroke="#333333" d="M583.98,-681.44C649.56,-668.06 731.78,-651.01 805,-635 829.33,-629.68 855.79,-623.67 879.72,-618.15"/>
<polygon fill="#333333" stroke="#333333" points="880.3,-619.81 884.78,-616.97 879.52,-616.4 880.3,-619.81"/>
</g>
<!-- transition_info_failed -->
<g id="node17" class="node">
<title>transition_info_failed</title>
<polygon fill="lightBlue" stroke="lightBlue" points="210,-635 66,-635 66,-563 210,-563 210,-635"/>
<text text-anchor="start" x="116.5" y="-601.6" font-family="Arial" font-weight="bold" font-size="8.00">info_failed</text>
<text text-anchor="start" x="120.5" y="-593.6" font-family="Arial" font-style="italic" font-size="8.00">Info failed</text>
</g>
<!-- place_informed&#45;&gt;transition_info_failed -->
<!-- informed -->
<g id="edge27" class="edge">
<title>place_informed&#45;&gt;transition_info_failed</title>
<path fill="none" stroke="#333333" d="M356.73,-678.31C313.65,-666.18 263.55,-651.06 219,-635 217.74,-634.55 216.47,-634.08 215.19,-633.61"/>
<polygon fill="#333333" stroke="#333333" points="215.54,-631.87 210.25,-631.74 214.31,-635.14 215.54,-631.87"/>
</g>
<!-- transition_invalid_file -->
<g id="node18" class="node">
<title>transition_invalid_file</title>
<polygon fill="lightBlue" stroke="lightBlue" points="372,-635 228,-635 228,-563 372,-563 372,-635"/>
<text text-anchor="start" x="278.5" y="-601.6" font-family="Arial" font-weight="bold" font-size="8.00">invalid_file</text>
<text text-anchor="start" x="282.5" y="-593.6" font-family="Arial" font-style="italic" font-size="8.00">Invalid file</text>
</g>
<!-- place_informed&#45;&gt;transition_invalid_file -->
<!-- informed -->
<g id="edge29" class="edge">
<title>place_informed&#45;&gt;transition_invalid_file</title>
<path fill="none" stroke="#333333" d="M410.74,-672.46C393.99,-661.5 375.27,-649.25 358.06,-637.99"/>
<polygon fill="#333333" stroke="#333333" points="358.86,-636.42 353.72,-635.15 356.94,-639.35 358.86,-636.42"/>
</g>
<!-- transition_triage -->
<g id="node19" class="node">
<title>transition_triage</title>
<polygon fill="lightBlue" stroke="lightBlue" points="796,-635 652,-635 652,-563 796,-563 796,-635"/>
<text text-anchor="start" x="712.5" y="-613.6" font-family="Arial" font-weight="bold" font-size="8.00">triage</text>
<text text-anchor="start" x="712.5" y="-605.6" font-family="Arial" font-style="italic" font-size="8.00">Triage</text>
<text text-anchor="start" x="711.5" y="-597.6" font-family="Arial" font-size="8.00">async: </text>
<text text-anchor="start" x="696.5" y="-581.6" font-family="Arial" font-size="8.00">Then: </text>
<text text-anchor="start" x="720.5" y="-581.6" font-family="Arial" text-decoration="underline" font-size="8.00">analyze</text>
<text text-anchor="start" x="748.5" y="-581.6" font-family="Arial" font-size="8.00"> </text>
</g>
<!-- place_informed&#45;&gt;transition_triage -->
<!-- informed -->
<g id="edge31" class="edge">
<title>place_informed&#45;&gt;transition_triage</title>
<path fill="none" stroke="#333333" d="M539.19,-674.77C573.14,-661.03 612.93,-644.93 646.88,-631.2"/>
<polygon fill="#333333" stroke="#333333" points="647.87,-632.69 651.84,-629.19 646.55,-629.45 647.87,-632.69"/>
</g>
<!-- transition_analyze -->
<g id="node20" class="node">
<title>transition_analyze</title>
<polygon fill="lightBlue" stroke="lightBlue" points="857,-419 713,-419 713,-347 857,-347 857,-419"/>
<text text-anchor="start" x="770" y="-389.6" font-family="Arial" font-weight="bold" font-size="8.00">analyze</text>
<text text-anchor="start" x="771" y="-381.6" font-family="Arial" font-style="italic" font-size="8.00">Analyze</text>
<text text-anchor="start" x="772.5" y="-373.6" font-family="Arial" font-size="8.00">async: </text>
</g>
<!-- place_informed&#45;&gt;transition_analyze -->
<!-- informed -->
<g id="edge33" class="edge">
<title>place_informed&#45;&gt;transition_analyze</title>
<path fill="none" stroke="#333333" d="M510.55,-672.38C522.79,-661.74 534.78,-649.04 543,-635 584.3,-564.44 526.97,-516.36 581,-455 612.98,-418.69 664.54,-400.94 707.83,-392.27"/>
<polygon fill="#333333" stroke="#333333" points="708.22,-393.98 712.79,-391.31 707.55,-390.54 708.22,-393.98"/>
</g>
<!-- place_informed&#45;&gt;transition_queue_ai -->
<!-- informed -->
<g id="edge41" class="edge">
<title>place_informed&#45;&gt;transition_queue_ai</title>
<path fill="none" stroke="#333333" d="M629.85,-697.96C746.07,-689.33 903.45,-671.55 1038,-635 1039.29,-634.65 1040.59,-634.28 1041.9,-633.9"/>
<polygon fill="#333333" stroke="#333333" points="1042.68,-635.49 1046.94,-632.34 1041.65,-632.14 1042.68,-635.49"/>
</g>
<!-- place_triaged -->
<g id="node5" class="node">
<title>place_triaged</title>
<ellipse fill="lightgreen" stroke="lightBlue" cx="785" cy="-491" rx="194.67" ry="36"/>
<text text-anchor="start" x="771" y="-501.6" font-family="Arial" font-weight="bold" font-size="8.00">triaged</text>
<text text-anchor="start" x="631" y="-493.6" font-family="Arial" font-style="italic" font-size="8.00">Triage observations recorded (caption, ocr_text, keywords from ai&#45;tools /v1/responses)</text>
<text text-anchor="start" x="757.5" y="-477.6" font-family="Arial" font-size="8.00">Then: </text>
<text text-anchor="start" x="781.5" y="-477.6" font-family="Arial" text-decoration="underline" font-size="8.00">analyze</text>
<text text-anchor="start" x="809.5" y="-477.6" font-family="Arial" font-size="8.00"> </text>
</g>
<!-- place_triaged&#45;&gt;transition_analyze -->
<!-- triaged -->
<g id="edge35" class="edge">
<title>place_triaged&#45;&gt;transition_analyze</title>
<path fill="none" stroke="#333333" d="M785,-455C785,-445.24 785,-434.56 785,-424.51"/>
<polygon fill="#333333" stroke="#333333" points="786.75,-424.33 785,-419.33 783.25,-424.33 786.75,-424.33"/>
</g>
<!-- place_local_ocr -->
<g id="node6" class="node">
<title>place_local_ocr</title>
<ellipse fill="lightgreen" stroke="lightBlue" cx="957" cy="-707" rx="75.67" ry="36"/>
<text text-anchor="start" x="938.5" y="-709.6" font-family="Arial" font-weight="bold" font-size="8.00">local_ocr</text>
<text text-anchor="start" x="893.5" y="-701.6" font-family="Arial" font-style="italic" font-size="8.00">Ocr/confidence from local Tesseract</text>
</g>
<!-- place_local_ocr&#45;&gt;transition_local_ocr -->
<!-- local_ocr -->
<g id="edge21" class="edge">
<title>place_local_ocr&#45;&gt;transition_local_ocr</title>
<path fill="none" stroke="#333333" d="M957,-671C957,-661.24 957,-650.56 957,-640.51"/>
<polygon fill="#333333" stroke="#333333" points="958.75,-640.33 957,-635.33 955.25,-640.33 958.75,-640.33"/>
</g>
<!-- place_analyzed -->
<g id="node7" class="node">
<title>place_analyzed</title>
<ellipse fill="lightgreen" stroke="lightBlue" cx="785" cy="-275" rx="106.13" ry="36"/>
<text text-anchor="start" x="767.5" y="-277.6" font-family="Arial" font-weight="bold" font-size="8.00">analyzed</text>
<text text-anchor="start" x="693" y="-269.6" font-family="Arial" font-style="italic" font-size="8.00">Features computed (blurhash/palette/pHash/probe)</text>
</g>
<!-- transition_finalize -->
<g id="node21" class="node">
<title>transition_finalize</title>
<polygon fill="lightBlue" stroke="lightBlue" points="924,-203 780,-203 780,-131 924,-131 924,-203"/>
<text text-anchor="start" x="838" y="-169.6" font-family="Arial" font-weight="bold" font-size="8.00">finalize</text>
<text text-anchor="start" x="838" y="-161.6" font-family="Arial" font-style="italic" font-size="8.00">Finalize</text>
</g>
<!-- place_analyzed&#45;&gt;transition_finalize -->
<!-- analyzed -->
<g id="edge37" class="edge">
<title>place_analyzed&#45;&gt;transition_finalize</title>
<path fill="none" stroke="#333333" d="M806.75,-239.58C813.17,-229.43 820.25,-218.23 826.86,-207.77"/>
<polygon fill="#333333" stroke="#333333" points="828.47,-208.49 829.67,-203.33 825.52,-206.62 828.47,-208.49"/>
</g>
<!-- place_complete -->
<g id="node8" class="node">
<title>place_complete</title>
<ellipse fill="lightgreen" stroke="lightBlue" cx="1019" cy="-59" rx="72" ry="36"/>
<text text-anchor="start" x="1000.5" y="-61.6" font-family="Arial" font-weight="bold" font-size="8.00">complete</text>
<text text-anchor="start" x="1004.5" y="-53.6" font-family="Arial" font-style="italic" font-size="8.00">All done</text>
</g>
<!-- place_complete&#45;&gt;transition_queue_ai -->
<!-- complete -->
<g id="edge39" class="edge">
<title>place_complete&#45;&gt;transition_queue_ai</title>
<path fill="none" stroke="#333333" d="M1077.07,-80.37C1150.64,-110.33 1268,-173.82 1268,-274 1268,-384 1268,-384 1268,-384 1268,-448.11 1285.28,-474.14 1249,-527 1235.94,-546.02 1216.07,-560.43 1195.77,-571.12"/>
<polygon fill="#333333" stroke="#333333" points="1194.81,-569.65 1191.16,-573.49 1196.4,-572.77 1194.81,-569.65"/>
</g>
<!-- place_ai_ready -->
<g id="node9" class="node">
<title>place_ai_ready</title>
<ellipse fill="lightgreen" stroke="lightBlue" cx="1119" cy="-491" rx="120.74" ry="36"/>
<text text-anchor="start" x="1102" y="-501.6" font-family="Arial" font-weight="bold" font-size="8.00">ai_ready</text>
<text text-anchor="start" x="1026.5" y="-493.6" font-family="Arial" font-style="italic" font-size="8.00">AI task pipeline active — aiQueue has pending tasks</text>
<text text-anchor="start" x="1093" y="-477.6" font-family="Arial" font-size="8.00">Then: </text>
<text text-anchor="start" x="1117" y="-477.6" font-family="Arial" text-decoration="underline" font-size="8.00">ai_task</text>
<text text-anchor="start" x="1142" y="-477.6" font-family="Arial" font-size="8.00"> </text>
</g>
<!-- place_ai_ready&#45;&gt;transition_queue_ai -->
<!-- ai_ready -->
<g id="edge43" class="edge">
<title>place_ai_ready&#45;&gt;transition_queue_ai</title>
<path fill="none" stroke="#333333" d="M1125.39,-526.97C1125.8,-536.82 1125.86,-547.62 1125.57,-557.76"/>
<polygon fill="#333333" stroke="#333333" points="1123.82,-557.94 1125.39,-563 1127.31,-558.06 1123.82,-557.94"/>
</g>
<!-- transition_ai_task -->
<g id="node23" class="node">
<title>transition_ai_task</title>
<polygon fill="lightBlue" stroke="lightBlue" points="1191,-419 1047,-419 1047,-347 1191,-347 1191,-419"/>
<text text-anchor="start" x="1105" y="-389.6" font-family="Arial" font-weight="bold" font-size="8.00">ai_task</text>
<text text-anchor="start" x="1089.5" y="-381.6" font-family="Arial" font-style="italic" font-size="8.00">Run next AI task</text>
<text text-anchor="start" x="1106.5" y="-373.6" font-family="Arial" font-size="8.00">async: </text>
</g>
<!-- place_ai_ready&#45;&gt;transition_ai_task -->
<!-- ai_ready -->
<g id="edge47" class="edge">
<title>place_ai_ready&#45;&gt;transition_ai_task</title>
<path fill="none" stroke="#333333" d="M1112.61,-455C1112.21,-445.24 1112.14,-434.56 1112.42,-424.51"/>
<polygon fill="#333333" stroke="#333333" points="1114.17,-424.38 1112.6,-419.33 1110.68,-424.27 1114.17,-424.38"/>
</g>
<!-- transition_ai_done -->
<g id="node24" class="node">
<title>transition_ai_done</title>
<polygon fill="lightBlue" stroke="lightBlue" points="1091,-311 947,-311 947,-239 1091,-239 1091,-311"/>
<text text-anchor="start" x="1003" y="-277.6" font-family="Arial" font-weight="bold" font-size="8.00">ai_done</text>
<text text-anchor="start" x="988.5" y="-269.6" font-family="Arial" font-style="italic" font-size="8.00">Finish AI pipeline</text>
</g>
<!-- place_ai_ready&#45;&gt;transition_ai_done -->
<!-- ai_ready -->
<g id="edge49" class="edge">
<title>place_ai_ready&#45;&gt;transition_ai_done</title>
<path fill="none" stroke="#333333" d="M1071.02,-457.87C1058.31,-447.02 1045.94,-433.84 1038,-419 1021.01,-387.28 1017.11,-346.11 1016.95,-316.1"/>
<polygon fill="#333333" stroke="#333333" points="1018.7,-316.01 1016.96,-311.01 1015.2,-316.01 1018.7,-316.01"/>
</g>
<!-- place_failed -->
<g id="node10" class="node">
<title>place_failed</title>
<ellipse fill="lightgreen" stroke="lightBlue" cx="80" cy="-491" rx="72.25" ry="36"/>
<text text-anchor="start" x="69" y="-493.6" font-family="Arial" font-weight="bold" font-size="8.00">failed</text>
<text text-anchor="start" x="20" y="-485.6" font-family="Arial" font-style="italic" font-size="8.00">Terminal error / exhausted retries</text>
</g>
<!-- place_failed&#45;&gt;transition_archive -->
<!-- failed -->
<g id="edge7" class="edge">
<title>place_failed&#45;&gt;transition_archive</title>
<path fill="none" stroke="#333333" d="M58.77,-525.76C35.07,-566.75 0,-638.77 0,-706 0,-816 0,-816 0,-816 0,-936.29 156.06,-992.28 253.87,-1015.56"/>
<polygon fill="#333333" stroke="#333333" points="253.5,-1017.28 258.77,-1016.72 254.3,-1013.87 253.5,-1017.28"/>
</g>
<!-- place_failed&#45;&gt;transition_info -->
<!-- failed -->
<g id="edge13" class="edge">
<title>place_failed&#45;&gt;transition_info</title>
<path fill="none" stroke="#333333" d="M62.29,-526.09C49.02,-556.81 36.37,-602.08 57,-635 127.79,-747.94 288.49,-790.01 384.82,-805.39"/>
<polygon fill="#333333" stroke="#333333" points="384.72,-807.15 389.93,-806.2 385.26,-803.69 384.72,-807.15"/>
</g>
<!-- place_deleted -->
<g id="node11" class="node">
<title>place_deleted</title>
<ellipse fill="lightgreen" stroke="lightBlue" cx="373" cy="-491" rx="161.44" ry="36"/>
<text text-anchor="start" x="358" y="-493.6" font-family="Arial" font-weight="bold" font-size="8.00">deleted</text>
<text text-anchor="start" x="229" y="-485.6" font-family="Arial" font-style="italic" font-size="8.00">Asset + its archive object deleted (terminal). Set immediately before row removal.</text>
</g>
<!-- transition_archive&#45;&gt;place_archived -->
<g id="edge2" class="edge">
<title>transition_archive&#45;&gt;place_archived</title>
<path fill="none" stroke="#333333" d="M318.22,-995C317.4,-985.14 317.28,-974.34 317.86,-964.2"/>
<polygon fill="#333333" stroke="#333333" points="319.62,-964.07 318.22,-958.97 316.13,-963.83 319.62,-964.07"/>
</g>
<!-- transition_archive&#45;&gt;place_archived -->
<g id="edge4" class="edge">
<title>transition_archive&#45;&gt;place_archived</title>
<path fill="none" stroke="#333333" d="M331,-995C331,-985.24 331,-974.56 331,-964.51"/>
<polygon fill="#333333" stroke="#333333" points="332.75,-964.33 331,-959.33 329.25,-964.33 332.75,-964.33"/>
</g>
<!-- transition_archive&#45;&gt;place_archived -->
<g id="edge6" class="edge">
<title>transition_archive&#45;&gt;place_archived</title>
<path fill="none" stroke="#333333" d="M343.78,-995C344.6,-985.14 344.72,-974.34 344.14,-964.2"/>
<polygon fill="#333333" stroke="#333333" points="345.87,-963.83 343.78,-958.97 342.38,-964.07 345.87,-963.83"/>
</g>
<!-- transition_archive&#45;&gt;place_archived -->
<g id="edge8" class="edge">
<title>transition_archive&#45;&gt;place_archived</title>
<path fill="none" stroke="#333333" d="M324.61,-995C324.21,-985.24 324.14,-974.56 324.42,-964.51"/>
<polygon fill="#333333" stroke="#333333" points="326.17,-964.38 324.6,-959.33 322.68,-964.27 326.17,-964.38"/>
</g>
<!-- transition_info&#45;&gt;place_informed -->
<g id="edge10" class="edge">
<title>transition_info&#45;&gt;place_informed</title>
<path fill="none" stroke="#333333" d="M455.61,-779C455.21,-769.24 455.14,-758.56 455.42,-748.51"/>
<polygon fill="#333333" stroke="#333333" points="457.17,-748.38 455.6,-743.33 453.68,-748.27 457.17,-748.38"/>
</g>
<!-- transition_info&#45;&gt;place_informed -->
<g id="edge12" class="edge">
<title>transition_info&#45;&gt;place_informed</title>
<path fill="none" stroke="#333333" d="M468.39,-779C468.79,-769.24 468.86,-758.56 468.58,-748.51"/>
<polygon fill="#333333" stroke="#333333" points="470.32,-748.27 468.4,-743.33 466.83,-748.38 470.32,-748.27"/>
</g>
<!-- transition_info&#45;&gt;place_informed -->
<g id="edge14" class="edge">
<title>transition_info&#45;&gt;place_informed</title>
<path fill="none" stroke="#333333" d="M455.61,-779C455.21,-769.24 455.14,-758.56 455.42,-748.51"/>
<polygon fill="#333333" stroke="#333333" points="457.17,-748.38 455.6,-743.33 453.68,-748.27 457.17,-748.38"/>
</g>
<!-- transition__delete&#45;&gt;place_deleted -->
<g id="edge16" class="edge">
<title>transition__delete&#45;&gt;place_deleted</title>
<path fill="none" stroke="#333333" d="M426.22,-563C417.22,-552.78 407.73,-541.54 399.28,-531.08"/>
<polygon fill="#333333" stroke="#333333" points="400.46,-529.77 395.97,-526.97 397.74,-531.96 400.46,-529.77"/>
</g>
<!-- transition__delete&#45;&gt;place_deleted -->
<g id="edge18" class="edge">
<title>transition__delete&#45;&gt;place_deleted</title>
<path fill="none" stroke="#333333" d="M439,-563C430.6,-552.47 420.9,-540.87 411.54,-530.15"/>
<polygon fill="#333333" stroke="#333333" points="412.72,-528.85 408.11,-526.24 410.09,-531.16 412.72,-528.85"/>
</g>
<!-- transition_local_ocr&#45;&gt;place_ai_ready -->
<g id="edge20" class="edge">
<title>transition_local_ocr&#45;&gt;place_ai_ready</title>
<path fill="none" stroke="#333333" d="M1004.1,-563C1021.63,-551.21 1041.71,-538.08 1060.15,-526.34"/>
<polygon fill="#333333" stroke="#333333" points="1061.51,-527.55 1064.8,-523.39 1059.64,-524.6 1061.51,-527.55"/>
</g>
<!-- transition_local_ocr&#45;&gt;place_ai_ready -->
<g id="edge22" class="edge">
<title>transition_local_ocr&#45;&gt;place_ai_ready</title>
<path fill="none" stroke="#333333" d="M1016.89,-563C1034.77,-551.6 1054.12,-538.95 1071.14,-527.51"/>
<polygon fill="#333333" stroke="#333333" points="1072.24,-528.88 1075.41,-524.63 1070.29,-525.97 1072.24,-528.88"/>
</g>
<!-- transition_iiif&#45;&gt;place_iiif -->
<g id="edge24" class="edge">
<title>transition_iiif&#45;&gt;place_iiif</title>
<path fill="none" stroke="#333333" d="M331,-1211C331,-1201.24 331,-1190.56 331,-1180.51"/>
<polygon fill="#333333" stroke="#333333" points="332.75,-1180.33 331,-1175.33 329.25,-1180.33 332.75,-1180.33"/>
</g>
<!-- transition_iiif&#45;&gt;place_iiif -->
<g id="edge26" class="edge">
<title>transition_iiif&#45;&gt;place_iiif</title>
<path fill="none" stroke="#333333" d="M324.61,-1211C324.2,-1201.14 324.14,-1190.34 324.43,-1180.2"/>
<polygon fill="#333333" stroke="#333333" points="326.19,-1180.02 324.61,-1174.97 322.69,-1179.9 326.19,-1180.02"/>
</g>
<!-- transition_info_failed&#45;&gt;place_failed -->
<g id="edge28" class="edge">
<title>transition_info_failed&#45;&gt;place_failed</title>
<path fill="none" stroke="#333333" d="M118.85,-563C113.13,-552.55 106.84,-541.04 101.01,-530.39"/>
<polygon fill="#333333" stroke="#333333" points="102.48,-529.43 98.54,-525.88 99.41,-531.11 102.48,-529.43"/>
</g>
<!-- transition_invalid_file&#45;&gt;place_failed -->
<g id="edge30" class="edge">
<title>transition_invalid_file&#45;&gt;place_failed</title>
<path fill="none" stroke="#333333" d="M227.96,-563.29C197.99,-548.85 163.74,-532.35 135.74,-518.86"/>
<polygon fill="#333333" stroke="#333333" points="136.21,-517.14 130.94,-516.55 134.69,-520.29 136.21,-517.14"/>
</g>
<!-- transition_triage&#45;&gt;place_triaged -->
<g id="edge32" class="edge">
<title>transition_triage&#45;&gt;place_triaged</title>
<path fill="none" stroke="#333333" d="M744.14,-563C749.97,-552.87 756.38,-541.74 762.35,-531.36"/>
<polygon fill="#333333" stroke="#333333" points="763.9,-532.17 764.88,-526.97 760.87,-530.43 763.9,-532.17"/>
</g>
<!-- transition_analyze&#45;&gt;place_analyzed -->
<g id="edge34" class="edge">
<title>transition_analyze&#45;&gt;place_analyzed</title>
<path fill="none" stroke="#333333" d="M778.61,-347C778.2,-337.14 778.14,-326.34 778.43,-316.2"/>
<polygon fill="#333333" stroke="#333333" points="780.19,-316.02 778.61,-310.97 776.69,-315.9 780.19,-316.02"/>
</g>
<!-- transition_analyze&#45;&gt;place_analyzed -->
<g id="edge36" class="edge">
<title>transition_analyze&#45;&gt;place_analyzed</title>
<path fill="none" stroke="#333333" d="M791.39,-347C791.8,-337.14 791.86,-326.34 791.57,-316.2"/>
<polygon fill="#333333" stroke="#333333" points="793.31,-315.9 791.39,-310.97 789.81,-316.02 793.31,-315.9"/>
</g>
<!-- transition_finalize&#45;&gt;place_complete -->
<g id="edge38" class="edge">
<title>transition_finalize&#45;&gt;place_complete</title>
<path fill="none" stroke="#333333" d="M907.14,-131C927.72,-117.94 950.91,-103.22 970.82,-90.58"/>
<polygon fill="#333333" stroke="#333333" points="971.99,-91.91 975.28,-87.75 970.12,-88.96 971.99,-91.91"/>
</g>
<!-- transition_queue_ai&#45;&gt;place_ai_ready -->
<g id="edge40" class="edge">
<title>transition_queue_ai&#45;&gt;place_ai_ready</title>
<path fill="none" stroke="#333333" d="M1106.22,-563C1105.4,-553.14 1105.28,-542.34 1105.86,-532.2"/>
<polygon fill="#333333" stroke="#333333" points="1107.62,-532.07 1106.22,-526.97 1104.13,-531.83 1107.62,-532.07"/>
</g>
<!-- transition_queue_ai&#45;&gt;place_ai_ready -->
<g id="edge42" class="edge">
<title>transition_queue_ai&#45;&gt;place_ai_ready</title>
<path fill="none" stroke="#333333" d="M1119,-563C1119,-553.24 1119,-542.56 1119,-532.51"/>
<polygon fill="#333333" stroke="#333333" points="1120.75,-532.33 1119,-527.33 1117.25,-532.33 1120.75,-532.33"/>
</g>
<!-- transition_queue_ai&#45;&gt;place_ai_ready -->
<g id="edge44" class="edge">
<title>transition_queue_ai&#45;&gt;place_ai_ready</title>
<path fill="none" stroke="#333333" d="M1131.78,-563C1132.6,-553.14 1132.72,-542.34 1132.14,-532.2"/>
<polygon fill="#333333" stroke="#333333" points="1133.87,-531.83 1131.78,-526.97 1130.38,-532.07 1133.87,-531.83"/>
</g>
<!-- transition_queue_ai&#45;&gt;place_ai_ready -->
<g id="edge46" class="edge">
<title>transition_queue_ai&#45;&gt;place_ai_ready</title>
<path fill="none" stroke="#333333" d="M1112.61,-563C1112.2,-553.14 1112.14,-542.34 1112.43,-532.2"/>
<polygon fill="#333333" stroke="#333333" points="1114.19,-532.02 1112.61,-526.97 1110.69,-531.9 1114.19,-532.02"/>
</g>
<!-- transition_ai_task&#45;&gt;place_ai_ready -->
<g id="edge48" class="edge">
<title>transition_ai_task&#45;&gt;place_ai_ready</title>
<path fill="none" stroke="#333333" d="M1125.4,-419.33C1125.8,-429.1 1125.86,-439.79 1125.57,-449.82"/>
<polygon fill="#333333" stroke="#333333" points="1123.82,-449.94 1125.39,-455 1127.31,-450.06 1123.82,-449.94"/>
</g>
<!-- transition_ai_done&#45;&gt;place_complete -->
<g id="edge50" class="edge">
<title>transition_ai_done&#45;&gt;place_complete</title>
<path fill="none" stroke="#333333" d="M1019,-238.66C1019,-200.6 1019,-140.15 1019,-100.28"/>
<polygon fill="#333333" stroke="#333333" points="1020.75,-100.03 1019,-95.03 1017.25,-100.03 1020.75,-100.03"/>
</g>
</g>
</svg>
